<?xml version="1.0" encoding="utf-8"?>
<!-- Generator: Adobe Illustrator 25.0.1, SVG Export Plug-In . SVG Version: 6.00 Build 0)  -->
<svg version="1.0" id="Layer_1" xmlns="http://www.w3.org/2000/svg" xmlns:xlink="http://www.w3.org/1999/xlink" x="0px" y="0px"
	 viewBox="0 0 1245 837.1" style="enable-background:new 0 0 1245 837.1;" xml:space="preserve">
<style type="text/css">
	.st0{fill:url(#SVGID_1_);}
	.st1{opacity:0.3;enable-background:new    ;}
	.st2{opacity:0.1;fill:#FFFFFF;enable-background:new    ;}
	.st3{fill:url(#SVGID_2_);}
	.st4{fill:#FFFFFF;}
</style>
<linearGradient id="SVGID_1_" gradientUnits="userSpaceOnUse" x1="510.0776" y1="413.378" x2="712.7576" y2="210.698" gradientTransform="matrix(1.06 0 0 1.06 -75.39 138.3671)">
	<stop  offset="0" style="stop-color:#249EFF"/>
	<stop  offset="1" style="stop-color:#2777FF"/>
</linearGradient>
<circle class="st0" cx="623.3" cy="418.5" r="329.1"/>
<path class="st1" d="M952.1,409.4C948.6,588.5,802.5,732,623.3,732.2c-178.2-0.1-323.9-142-328.8-320.1c-0.1,2.1-0.2,4.3-0.3,6.4
	c0,181.8,147.4,329.1,329.2,329.1l0,0c181.8,0,329.1-147.4,329.1-329.1l0,0C952.4,415.5,952.3,412.5,952.1,409.4L952.1,409.4z"/>
<path class="st2" d="M623.3,89.4c-181.8,0-329.2,147.4-329.2,329.1l0,0c0.1,3,0.2,6,0.3,9.1c3.5-179.1,149.7-322.6,328.8-322.7
	c178.2,0.1,323.9,142,328.8,320.1c0.1-2.1,0.2-4.3,0.3-6.4C952.4,236.8,805.1,89.4,623.3,89.4L623.3,89.4z"/>
<linearGradient id="SVGID_2_" gradientUnits="userSpaceOnUse" x1="493.2098" y1="408.4352" x2="695.8898" y2="205.7552" gradientTransform="matrix(1.21 0 0 1.21 -153.21 102.8195)">
	<stop  offset="0" style="stop-color:#249EFF"/>
	<stop  offset="1" style="stop-color:#2777FF"/>
</linearGradient>
<ellipse class="st3" cx="622" cy="418.5" rx="374" ry="374.5"/>
<path class="st1" d="M996.6,408.2c-4,203.8-170.1,367-373.7,367.2c-202.5-0.1-368.1-161.5-373.7-364.2c-0.1,2.4-0.3,4.9-0.4,7.3
	c0,206.8,167.5,374.5,374,374.5S997,625.3,997,418.5l0,0C996.9,415.1,996.8,411.7,996.6,408.2L996.6,408.2z"/>
<path class="st2" d="M623,44c-206.6,0-374,167.7-374,374.5c0.1,3.4,0.2,6.9,0.4,10.3c4-203.8,170.1-367,373.7-367.2
	C825.4,61.8,991,223.2,996.6,425.9c0.2-2.4,0.3-4.9,0.4-7.3C997,211.7,829.5,44,623,44z"/>
<path class="st1" d="M704.7,343.4c-13.1-4.2-29.6-8.7-40.8-8.7c-12.7,0-18.3-1.3-29.2-6.9c-9.6-4.9-14.9-9.2-18.1-15.1
	s-4.6-14.2-4.6-27.3v-24l-20.8-8.1c-60.3-23.7-122-31.6-237.6-30.9c-16.4,0.1-28.7,0.2-37.4,0.3s-13.4,0.2-15.9,0.4
	c-0.3,0-0.7,0.1-1,0.1c-0.3,0-0.5,0.1-0.8,0.2c-0.8,0.1-1.5,0.6-2,1.2c-0.9,0.9-1.4,2-1.5,3.2c0,1.3,0.4,2.6,1.3,3.6
	c0.5,0.7,1.2,1.2,2,1.4c0.4,0.2,0.8,0.3,1.2,0.3c1.2,0.2,2.5,0.3,4.7,0.5c4.3,0.3,11.3,0.8,20.6,1.3
	c110.6,6.6,179.4,17.2,236.6,36.2l5.1,1.7l-21.4,0.8c-99,3.8-173.5,10.9-238.3,22.7c-19.6,3.6-31.3,5.8-38.1,7.4
	c-2.6,0.5-5.1,1.3-7.4,2.4c-1.5,0.6-2.6,1.7-3.2,3.2c-0.5,1.2-0.5,2.5-0.2,3.8c0.3,0.9,0.8,1.7,1.4,2.3c0.6,0.7,1.4,1.2,2.3,1.3
	c0.3,0.1,0.7,0.1,1,0.2c0.5,0,0.9,0.1,1.3,0.1c0.8,0,1.8,0,3-0.1c2.4-0.1,5.7-0.4,9.7-0.8c8-0.8,18.8-2,30.6-3.5
	c61.7-7.9,119.6-13.1,168.4-15.1c22.3-0.9,52.8-0.8,77.6,0.1c2.7,0.1,4.3,0.3,6.8,0.4c-51.8,8.4-135.9,35.8-188.8,61.9
	c-14.1,7-27.9,14.6-41.3,23c-4.5,2.8-8.9,5.9-13.1,9.1c-1.4,1.1-2.7,2.4-3.9,3.7c-0.7,0.8-1.2,1.7-1.4,2.7c-0.4,1.9,0.1,3.9,1.4,5.5
	c1.8,1.8,3,1.5,3.6,1.5c0.4,0,0.8,0,1.2-0.1c0.5-0.1,0.9-0.2,1.4-0.4c0.9-0.3,2-0.7,3.3-1.2c2.7-1.1,6.3-2.7,10.7-4.6
	c8.9-4,20.9-9.6,34-16c76.4-34.1,141-58.8,232.6-62.6c1.3,2.8,2.9,6.4,4.7,10.5l8,18.2c-76.1,48.1-52.1,158.9,31.8,172.9
	c12.6,1.9,25.3,3.1,38.1,3.5c44,1.8,59.8,6,89.1,24.2c22,13.6,41,33.6,56.1,58.9c6,10,13.2,26.5,18.8,41.8
	c2.8,7.7,5.2,15.1,6.9,21.4s2.6,11.5,2.6,13.8c0,2.6,0.3,5.2,1.1,7.7c0.4,1.2,0.9,2.3,1.7,3.3c1.2,1.6,3,2.5,5,2.6
	c1.5-0.1,3-0.7,4.1-1.8c0.7-0.7,1.2-1.5,1.5-2.5c0.5-1.4,0.8-2.8,0.8-4.3c0.2-3.8,0-7.6-0.4-11.3c-1.2-10.8-3.1-21.5-5.7-32.1
	c-9.6-38.7-35-78.7-66.7-106c41.2,13.7,74.6,44.6,86.8,80.5c0.5,1.8,1.5,3.5,2.7,4.9c0.8,1,1.9,1.7,3.2,2c1.9,0.4,3.9-0.2,5.4-1.5
	c2.5-2.5,2-4.6,1.9-6.4c-0.2-2-0.5-3.9-1.1-5.8c-1.4-5.1-3.2-10.1-5.3-15c-4.6-11.1-10.9-23.5-16.8-31.6
	c-22-29.9-68.6-54.5-121.1-65.3c-12.5-2.6-40.9-6.9-64.4-6.9c-1.7,0-24.6-1.9-32.9-2.6c-83.5-7.3-77.9-127.2,7.5-127.2
	c12.1,0,19.6,0.5,30.9,3.8s26.2,9.3,52.1,20.3c11.3,4.8,17.7,7.8,20.9,10s3.5,3,4.5,6.2c1.2,3.9,1.4,9.5,4.8,12.7s17.6,8,23.9,11.5
	c10.8,6.3,16.2,10.1,25.6,22.4c10-12.9,14.2-13.3,26.1-17.2c-17.7-2-41.1-19.9-29.2-21.8c-10.8-9.7-13.3-26.7-18.5-29.6
	c-1.2-1-2.5-1.8-4-2.4l-21.7-2.2c-23.3-13.8-57.1-30.6-74.1-36.1L704.7,343.4z M801.5,378c0-1.1-0.3-2.2-0.9-3.1
	c-0.4-0.6-0.8-1.2-1.2-1.8c-1-1.3-2.1-2.5-3.3-3.6c-29.7-28.2-66.5-49.9-104.6-63.3c-2.3-0.9-4.7-1.5-7.2-2
	c-1.1-0.2-2.3-0.3-3.4-0.1c-1,0.2-2,0.6-2.8,1.3c-1.1,1.1-1.8,2.5-1.8,4c-0.1,1,0.3,2.1,0.9,2.9c0.2,0.3,0.4,0.6,0.7,0.8
	c0.3,0.3,0.6,0.5,0.9,0.7c0.5,0.4,1.1,0.7,1.8,1.1c1.4,0.8,3.2,1.9,5.5,3.1c29.7,14.2,53.1,23.7,76.7,43.2
	c8.1,5.9,10.2,12.3,19.5,13.7L801.5,378z"/>
<path class="st4" d="M704.7,328.8c-13.1-4.2-29.6-8.7-40.8-8.7c-12.7,0-18.3-1.3-29.2-6.9c-9.6-4.9-14.9-9.2-18.1-15.1
	c-3.2-5.9-4.6-14.2-4.6-27.3v-24l-20.8-8.1c-60.3-23.7-122-31.6-237.6-30.9c-16.4,0.1-28.7,0.2-37.4,0.3s-13.4,0.2-15.9,0.4
	c-0.3,0-0.7,0.1-1,0.1c-0.3,0-0.5,0.1-0.8,0.2c-0.8,0.1-1.5,0.6-2,1.2c-0.9,0.9-1.4,2-1.5,3.2c0,1.3,0.4,2.6,1.3,3.6
	c0.5,0.7,1.2,1.2,2,1.4c0.4,0.2,0.8,0.3,1.2,0.3c1.2,0.2,2.5,0.3,4.7,0.5c4.3,0.3,11.3,0.8,20.6,1.3
	c110.6,6.6,179.4,17.2,236.6,36.2l5.1,1.7l-21.4,0.8c-99.1,3.8-173.5,10.9-238.3,22.7c-19.6,3.6-31.3,5.8-38.1,7.4
	c-2.6,0.5-5,1.3-7.4,2.3c-1.5,0.6-2.6,1.8-3.2,3.2c-0.5,1.2-0.5,2.5-0.2,3.8c0.3,0.8,0.8,1.6,1.4,2.2c0.6,0.7,1.4,1.2,2.3,1.3
	c0.3,0.1,0.7,0.1,1,0.2c0.4,0.1,0.9,0.1,1.3,0.1c0.8,0,1.8,0,3-0.1c2.4-0.1,5.7-0.4,9.7-0.8c8-0.8,18.8-2,30.6-3.5
	c61.7-7.9,119.6-13.1,168.4-15.1c22.3-0.9,52.8-0.8,77.6,0.1c2.7,0.1,4.3,0.3,6.8,0.4c-51.8,8.5-135.9,35.8-188.8,62
	c-14.1,7-27.9,14.6-41.3,23c-4.5,2.8-8.9,5.9-13.1,9.1c-1.4,1.1-2.7,2.3-3.9,3.7c-0.7,0.8-1.2,1.7-1.4,2.6c-0.4,1.9,0.1,4,1.4,5.5
	c1.8,1.8,3,1.5,3.6,1.5c0.4,0,0.8,0,1.2-0.1c0.5-0.1,0.9-0.2,1.4-0.4c0.9-0.3,2-0.7,3.3-1.2c2.7-1.1,6.3-2.7,10.7-4.6
	c8.9-4,20.9-9.6,34-16c76.4-34.1,141-58.8,232.6-62.6c1.3,2.8,2.9,6.4,4.7,10.5l8,18.2C536.5,382.2,560.4,493,644.4,507
	c12.6,1.9,25.3,3.1,38,3.5c44,1.8,59.8,6,89.1,24.2c22,13.6,41,33.6,56.1,58.9c6,10,13.2,26.5,18.8,41.8c2.8,7.7,5.2,15.1,6.9,21.4
	s2.6,11.5,2.6,13.8c0,2.6,0.3,5.2,1.1,7.7c0.4,1.2,0.9,2.3,1.7,3.3c1.2,1.6,3,2.5,5,2.6c1.5-0.1,3-0.7,4.1-1.8
	c0.7-0.7,1.2-1.5,1.5-2.5c0.5-1.4,0.8-2.8,0.8-4.3c0.2-3.8,0-7.6-0.4-11.3c-1.2-10.8-3.1-21.5-5.7-32.1c-9.6-38.7-35-78.7-66.7-106
	c41.2,13.7,74.6,44.5,86.8,80.5c0.5,1.8,1.5,3.5,2.7,4.9c0.8,1,1.9,1.7,3.2,2c1.9,0.4,3.9-0.2,5.4-1.5c2.5-2.5,2-4.6,1.9-6.4
	c-0.2-2-0.5-3.9-1.1-5.8c-1.4-5.1-3.2-10.1-5.3-15c-4.6-11.1-10.9-23.5-16.8-31.6c-22-29.9-68.6-54.5-121.1-65.3
	c-12.5-2.6-40.9-6.9-64.3-6.9c-1.7,0-24.6-1.9-32.9-2.6c-83.5-7.3-77.9-127.2,7.5-127.2c12.1,0,19.6,0.5,30.9,3.8
	s26.2,9.3,52.1,20.3c11.3,4.8,17.7,7.8,20.9,10s3.5,3,4.5,6.2c1.2,3.9,1.4,9.5,4.8,12.7s17.6,8,23.9,11.5
	c10.8,6.3,16.2,10.1,25.6,22.4c10-12.9,14.2-13.3,26.1-17.2c-17.7-2-41.1-19.9-29.2-21.8c-10.8-9.7-13.3-26.7-18.5-29.6
	c-1.2-1-2.6-1.8-4-2.4l-21.7-2.2C755.6,351.1,721.8,334.3,704.7,328.8L704.7,328.8z M801.5,363.4c0-1.1-0.3-2.2-0.9-3.1
	c-0.4-0.6-0.8-1.2-1.2-1.8c-1-1.3-2.1-2.5-3.3-3.6c-29.7-28.2-66.5-49.9-104.6-63.3c-2.3-0.9-4.7-1.5-7.2-2
	c-1.1-0.2-2.3-0.3-3.4-0.1c-1,0.2-2,0.6-2.8,1.3c-1.1,1.1-1.8,2.5-1.8,4c-0.1,1,0.3,2.1,0.9,2.9c0.2,0.3,0.4,0.6,0.7,0.8
	c0.3,0.3,0.6,0.5,0.9,0.7c0.5,0.4,1.1,0.7,1.8,1.2c1.4,0.8,3.2,1.9,5.5,3.1c29.7,14.2,53.1,23.7,76.7,43.1
	c8.1,5.9,10.2,12.3,19.5,13.7L801.5,363.4z"/>
</svg>
